<mxfile host="app.diagrams.net" agent="Mozilla/5.0 (Macintosh; Intel Mac OS X 10_15_7) AppleWebKit/605.1.15 (KHTML, like Gecko) Version/18.3.1 Safari/605.1.15" version="26.2.14">
  <diagram name="Página-1" id="x-2YHEiGtUuAu708nRld">
    <mxGraphModel dx="2066" dy="1107" grid="1" gridSize="10" guides="1" tooltips="1" connect="1" arrows="1" fold="1" page="1" pageScale="1" pageWidth="1654" pageHeight="1169" math="0" shadow="0">
      <root>
        <mxCell id="0" />
        <mxCell id="1" parent="0" />
        <mxCell id="iOlNJ4PKD2sdGlTA0boe-1" value="Usuario" style="shape=umlActor;verticalLabelPosition=bottom;verticalAlign=top;html=1;outlineConnect=0;" vertex="1" parent="1">
          <mxGeometry x="60" y="555" width="30" height="60" as="geometry" />
        </mxCell>
        <mxCell id="iOlNJ4PKD2sdGlTA0boe-3" value="USC01&lt;div&gt;Cadastrar nome e meta calorias&lt;/div&gt;" style="ellipse;whiteSpace=wrap;html=1;" vertex="1" parent="1">
          <mxGeometry x="280" y="150" width="120" height="82" as="geometry" />
        </mxCell>
        <mxCell id="iOlNJ4PKD2sdGlTA0boe-4" value="USC02&lt;div&gt;Login&lt;/div&gt;" style="ellipse;whiteSpace=wrap;html=1;" vertex="1" parent="1">
          <mxGeometry x="280" y="280" width="120" height="82" as="geometry" />
        </mxCell>
        <mxCell id="iOlNJ4PKD2sdGlTA0boe-5" value="USC03&lt;div&gt;Visualizar meta diária e consumo atual&amp;nbsp;&lt;/div&gt;" style="ellipse;whiteSpace=wrap;html=1;" vertex="1" parent="1">
          <mxGeometry x="280" y="410" width="120" height="82" as="geometry" />
        </mxCell>
        <mxCell id="iOlNJ4PKD2sdGlTA0boe-15" value="" style="endArrow=none;html=1;rounded=0;exitX=0.5;exitY=0.5;exitDx=0;exitDy=0;entryX=0;entryY=0.5;entryDx=0;entryDy=0;exitPerimeter=0;" edge="1" parent="1" source="iOlNJ4PKD2sdGlTA0boe-1" target="iOlNJ4PKD2sdGlTA0boe-3">
          <mxGeometry width="50" height="50" relative="1" as="geometry">
            <mxPoint x="250" y="589" as="sourcePoint" />
            <mxPoint x="350" y="52" as="targetPoint" />
          </mxGeometry>
        </mxCell>
        <mxCell id="iOlNJ4PKD2sdGlTA0boe-16" value="" style="endArrow=none;html=1;rounded=0;entryX=0;entryY=0.5;entryDx=0;entryDy=0;exitX=0.5;exitY=0.5;exitDx=0;exitDy=0;exitPerimeter=0;" edge="1" parent="1" source="iOlNJ4PKD2sdGlTA0boe-1" target="iOlNJ4PKD2sdGlTA0boe-4">
          <mxGeometry width="50" height="50" relative="1" as="geometry">
            <mxPoint x="250" y="589" as="sourcePoint" />
            <mxPoint x="400" y="-38" as="targetPoint" />
          </mxGeometry>
        </mxCell>
        <mxCell id="iOlNJ4PKD2sdGlTA0boe-17" value="" style="endArrow=none;html=1;rounded=0;exitX=0.5;exitY=0.5;exitDx=0;exitDy=0;entryX=0;entryY=0.5;entryDx=0;entryDy=0;exitPerimeter=0;" edge="1" parent="1" source="iOlNJ4PKD2sdGlTA0boe-1" target="iOlNJ4PKD2sdGlTA0boe-5">
          <mxGeometry width="50" height="50" relative="1" as="geometry">
            <mxPoint x="250" y="589" as="sourcePoint" />
            <mxPoint x="410" y="-28" as="targetPoint" />
          </mxGeometry>
        </mxCell>
        <mxCell id="iOlNJ4PKD2sdGlTA0boe-18" value="" style="endArrow=none;html=1;rounded=0;exitX=0.5;exitY=0.5;exitDx=0;exitDy=0;exitPerimeter=0;entryX=0;entryY=0.5;entryDx=0;entryDy=0;" edge="1" parent="1" source="iOlNJ4PKD2sdGlTA0boe-1" target="iOlNJ4PKD2sdGlTA0boe-72">
          <mxGeometry width="50" height="50" relative="1" as="geometry">
            <mxPoint x="250" y="589" as="sourcePoint" />
            <mxPoint x="780" y="600" as="targetPoint" />
          </mxGeometry>
        </mxCell>
        <mxCell id="iOlNJ4PKD2sdGlTA0boe-69" value="" style="endArrow=none;html=1;rounded=0;exitX=0.5;exitY=0.5;exitDx=0;exitDy=0;entryX=0;entryY=0.5;entryDx=0;entryDy=0;exitPerimeter=0;" edge="1" parent="1" source="iOlNJ4PKD2sdGlTA0boe-1" target="iOlNJ4PKD2sdGlTA0boe-73">
          <mxGeometry width="50" height="50" relative="1" as="geometry">
            <mxPoint x="85" y="599" as="sourcePoint" />
            <mxPoint x="270" y="755" as="targetPoint" />
          </mxGeometry>
        </mxCell>
        <mxCell id="iOlNJ4PKD2sdGlTA0boe-70" value="" style="endArrow=none;html=1;rounded=0;exitX=0.5;exitY=0.5;exitDx=0;exitDy=0;exitPerimeter=0;entryX=0;entryY=0.5;entryDx=0;entryDy=0;" edge="1" parent="1" source="iOlNJ4PKD2sdGlTA0boe-1" target="iOlNJ4PKD2sdGlTA0boe-74">
          <mxGeometry width="50" height="50" relative="1" as="geometry">
            <mxPoint x="90" y="590" as="sourcePoint" />
            <mxPoint x="270" y="850" as="targetPoint" />
          </mxGeometry>
        </mxCell>
        <mxCell id="iOlNJ4PKD2sdGlTA0boe-71" value="" style="endArrow=none;html=1;rounded=0;exitX=0.5;exitY=0.5;exitDx=0;exitDy=0;entryX=0;entryY=0.5;entryDx=0;entryDy=0;exitPerimeter=0;" edge="1" parent="1" source="iOlNJ4PKD2sdGlTA0boe-1" target="iOlNJ4PKD2sdGlTA0boe-75">
          <mxGeometry width="50" height="50" relative="1" as="geometry">
            <mxPoint x="105" y="619" as="sourcePoint" />
            <mxPoint x="260" y="980" as="targetPoint" />
          </mxGeometry>
        </mxCell>
        <mxCell id="iOlNJ4PKD2sdGlTA0boe-72" value="USC04&lt;div&gt;Adicionar alimento na refeição&lt;/div&gt;" style="ellipse;whiteSpace=wrap;html=1;" vertex="1" parent="1">
          <mxGeometry x="280" y="544" width="120" height="82" as="geometry" />
        </mxCell>
        <mxCell id="iOlNJ4PKD2sdGlTA0boe-73" value="&lt;span style=&quot;caret-color: rgb(0, 0, 0); color: rgb(0, 0, 0); font-family: Helvetica; font-size: 12px; font-style: normal; font-variant-caps: normal; font-weight: 400; letter-spacing: normal; orphans: auto; text-align: center; text-indent: 0px; text-transform: none; white-space: normal; widows: auto; word-spacing: 0px; -webkit-text-stroke-width: 0px; background-color: rgb(236, 236, 236); text-decoration: none; display: inline !important; float: none;&quot;&gt;USC09&lt;/span&gt;&lt;div style=&quot;caret-color: rgb(0, 0, 0); color: rgb(0, 0, 0); font-family: Helvetica; font-size: 12px; font-style: normal; font-variant-caps: normal; font-weight: 400; letter-spacing: normal; orphans: auto; text-align: center; text-indent: 0px; text-transform: none; white-space: normal; widows: auto; word-spacing: 0px; -webkit-text-stroke-width: 0px; text-decoration: none;&quot;&gt;Inserir quantidade do alimento (gramas)&lt;/div&gt;" style="ellipse;whiteSpace=wrap;html=1;" vertex="1" parent="1">
          <mxGeometry x="280" y="680" width="120" height="82" as="geometry" />
        </mxCell>
        <mxCell id="iOlNJ4PKD2sdGlTA0boe-74" value="USC10&lt;div&gt;Consultar informações nutricionais de um alimento&lt;/div&gt;" style="ellipse;whiteSpace=wrap;html=1;" vertex="1" parent="1">
          <mxGeometry x="280" y="820" width="120" height="82" as="geometry" />
        </mxCell>
        <mxCell id="iOlNJ4PKD2sdGlTA0boe-75" value="&lt;span style=&quot;caret-color: rgb(0, 0, 0); color: rgb(0, 0, 0); font-family: Helvetica; font-size: 12px; font-style: normal; font-variant-caps: normal; font-weight: 400; letter-spacing: normal; text-align: center; text-indent: 0px; text-transform: none; white-space: normal; word-spacing: 0px; -webkit-text-stroke-width: 0px; background-color: rgb(236, 236, 236); text-decoration: none; float: none; display: inline !important;&quot;&gt;USC11&lt;/span&gt;&lt;div style=&quot;caret-color: rgb(0, 0, 0); color: rgb(0, 0, 0); font-family: Helvetica; font-size: 12px; font-style: normal; font-variant-caps: normal; font-weight: 400; letter-spacing: normal; text-align: center; text-indent: 0px; text-transform: none; white-space: normal; word-spacing: 0px; -webkit-text-stroke-width: 0px; text-decoration: none;&quot;&gt;Redefinir nome e meta calórica&lt;/div&gt;" style="ellipse;whiteSpace=wrap;html=1;" vertex="1" parent="1">
          <mxGeometry x="280" y="960" width="120" height="82" as="geometry" />
        </mxCell>
        <mxCell id="iOlNJ4PKD2sdGlTA0boe-76" value="USC05&lt;div&gt;Buscar alimento pelo nome&lt;/div&gt;" style="ellipse;whiteSpace=wrap;html=1;" vertex="1" parent="1">
          <mxGeometry x="560" y="347" width="120" height="82" as="geometry" />
        </mxCell>
        <mxCell id="iOlNJ4PKD2sdGlTA0boe-77" value="USC06&lt;div&gt;Ver alimentos frequentes&lt;/div&gt;" style="ellipse;whiteSpace=wrap;html=1;" vertex="1" parent="1">
          <mxGeometry x="560" y="477" width="120" height="82" as="geometry" />
        </mxCell>
        <mxCell id="iOlNJ4PKD2sdGlTA0boe-78" value="USC07&lt;div&gt;Ver alimentos personalizados&lt;/div&gt;" style="ellipse;whiteSpace=wrap;html=1;" vertex="1" parent="1">
          <mxGeometry x="560" y="607" width="120" height="82" as="geometry" />
        </mxCell>
        <mxCell id="iOlNJ4PKD2sdGlTA0boe-79" value="USC08&lt;br&gt;&lt;div&gt;&lt;div&gt;Criar alimentos personalizado&lt;/div&gt;&lt;/div&gt;" style="ellipse;whiteSpace=wrap;html=1;" vertex="1" parent="1">
          <mxGeometry x="560" y="741" width="120" height="82" as="geometry" />
        </mxCell>
        <mxCell id="iOlNJ4PKD2sdGlTA0boe-88" value="&amp;lt;&amp;lt;include&amp;gt;&amp;gt;" style="endArrow=open;endSize=12;dashed=1;html=1;rounded=0;exitX=1;exitY=0.5;exitDx=0;exitDy=0;entryX=0;entryY=0.5;entryDx=0;entryDy=0;" edge="1" parent="1" source="iOlNJ4PKD2sdGlTA0boe-72" target="iOlNJ4PKD2sdGlTA0boe-76">
          <mxGeometry x="-0.0214" y="-2" width="160" relative="1" as="geometry">
            <mxPoint x="830" y="580" as="sourcePoint" />
            <mxPoint x="990" y="580" as="targetPoint" />
            <mxPoint as="offset" />
          </mxGeometry>
        </mxCell>
        <mxCell id="iOlNJ4PKD2sdGlTA0boe-89" value="&amp;lt;&amp;lt;include&amp;gt;&amp;gt;" style="endArrow=open;endSize=12;dashed=1;html=1;rounded=0;exitX=1;exitY=0.5;exitDx=0;exitDy=0;entryX=0;entryY=0.5;entryDx=0;entryDy=0;" edge="1" parent="1" source="iOlNJ4PKD2sdGlTA0boe-72" target="iOlNJ4PKD2sdGlTA0boe-77">
          <mxGeometry x="-0.0214" y="-2" width="160" relative="1" as="geometry">
            <mxPoint x="410" y="595" as="sourcePoint" />
            <mxPoint x="570" y="398" as="targetPoint" />
            <mxPoint as="offset" />
          </mxGeometry>
        </mxCell>
        <mxCell id="iOlNJ4PKD2sdGlTA0boe-90" value="&amp;lt;&amp;lt;include&amp;gt;&amp;gt;" style="endArrow=open;endSize=12;dashed=1;html=1;rounded=0;exitX=1;exitY=0.5;exitDx=0;exitDy=0;entryX=0;entryY=0.5;entryDx=0;entryDy=0;" edge="1" parent="1" source="iOlNJ4PKD2sdGlTA0boe-72" target="iOlNJ4PKD2sdGlTA0boe-78">
          <mxGeometry x="-0.0214" y="-2" width="160" relative="1" as="geometry">
            <mxPoint x="410" y="595" as="sourcePoint" />
            <mxPoint x="570" y="528" as="targetPoint" />
            <mxPoint as="offset" />
          </mxGeometry>
        </mxCell>
        <mxCell id="iOlNJ4PKD2sdGlTA0boe-91" value="&amp;lt;&amp;lt;include&amp;gt;&amp;gt;" style="endArrow=open;endSize=12;dashed=1;html=1;rounded=0;exitX=1;exitY=0.5;exitDx=0;exitDy=0;entryX=0;entryY=0.5;entryDx=0;entryDy=0;" edge="1" parent="1" source="iOlNJ4PKD2sdGlTA0boe-72" target="iOlNJ4PKD2sdGlTA0boe-79">
          <mxGeometry x="-0.0214" y="-2" width="160" relative="1" as="geometry">
            <mxPoint x="420" y="605" as="sourcePoint" />
            <mxPoint x="580" y="538" as="targetPoint" />
            <mxPoint as="offset" />
          </mxGeometry>
        </mxCell>
      </root>
    </mxGraphModel>
  </diagram>
</mxfile>
